<!DOCTYPE svg PUBLIC "-//W3C//DTD SVG 1.1//EN" "http://www.w3.org/Graphics/SVG/1.1/DTD/svg11.dtd">
<!-- Uploaded to: SVG Repo, www.svgrepo.com, Transformed by: SVG Repo Mixer Tools -->
<svg fill="#d1d5db" width="800px" height="800px" viewBox="0 0 32 32" version="1.1" xmlns="http://www.w3.org/2000/svg">
<g id="SVGRepo_bgCarrier" stroke-width="0"/>
<g id="SVGRepo_tracerCarrier" stroke-linecap="round" stroke-linejoin="round"/>
<g id="SVGRepo_iconCarrier"> <title>sun-alt</title> <path d="M16 9.25c-3.728 0-6.75 3.022-6.75 6.75s3.022 6.75 6.75 6.75c3.728 0 6.75-3.022 6.75-6.75v0c-0.005-3.726-3.024-6.745-6.75-6.75h-0zM16 21.25c-2.899 0-5.25-2.351-5.25-5.25s2.351-5.25 5.25-5.25c2.899 0 5.25 2.351 5.25 5.25v0c-0.004 2.898-2.352 5.246-5.25 5.25h-0zM22.848 9.897c0 0 0 0 0.001 0 0.207 0 0.395-0.084 0.531-0.22l5.168-5.168c0.136-0.136 0.219-0.323 0.219-0.53 0-0.415-0.336-0.751-0.751-0.751-0.208 0-0.395 0.084-0.531 0.22v0l-5.168 5.168c-0.136 0.136-0.22 0.323-0.22 0.53 0 0.414 0.336 0.75 0.75 0.75 0 0 0.001 0 0.001 0h-0zM23.379 22.322c-0.136-0.136-0.324-0.22-0.531-0.22-0.415 0-0.751 0.336-0.751 0.751 0 0.207 0.084 0.395 0.22 0.531l5.152 5.152c0.136 0.136 0.324 0.22 0.531 0.22 0.415 0 0.751-0.336 0.751-0.751 0-0.207-0.084-0.395-0.22-0.531v0zM8.621 9.678c0.135 0.131 0.319 0.212 0.523 0.212 0.414 0 0.75-0.336 0.75-0.75 0-0.203-0.081-0.388-0.212-0.523l0 0-5.151-5.152c-0.136-0.14-0.327-0.227-0.538-0.227-0.414 0-0.75 0.336-0.75 0.75 0 0.211 0.087 0.401 0.227 0.537l0 0zM16 24.934c-0.414 0-0.75 0.336-0.75 0.75v0 4.307c0 0.414 0.336 0.75 0.75 0.75s0.75-0.336 0.75-0.75v0-4.307c-0-0.414-0.336-0.75-0.75-0.75v0zM16 7.058c0.414-0 0.75-0.336 0.75-0.75v0-4.308c0-0.414-0.336-0.75-0.75-0.75s-0.75 0.336-0.75 0.75v0 4.308c0 0.414 0.336 0.75 0.75 0.75v0zM29.996 15.25h-4.309c-0.414 0-0.75 0.336-0.75 0.75s0.336 0.75 0.75 0.75v0h4.309c0.414 0 0.75-0.336 0.75-0.75s-0.336-0.75-0.75-0.75v0zM7.063 16c-0-0.414-0.336-0.75-0.75-0.75h-4.308c-0.414 0-0.75 0.336-0.75 0.75s0.336 0.75 0.75 0.75v0h4.308c0.414-0 0.75-0.336 0.75-0.75v0zM8.621 22.322l-5.151 5.154c-0.131 0.135-0.212 0.319-0.212 0.523 0 0.414 0.336 0.75 0.75 0.75 0.203 0 0.388-0.081 0.523-0.212l-0 0 5.151-5.154c0.14-0.136 0.227-0.327 0.227-0.538 0-0.414-0.336-0.75-0.75-0.75-0.211 0-0.401 0.087-0.538 0.227l-0 0zM20.4 24.664c-0.116-0.273-0.382-0.46-0.692-0.46-0.414 0-0.75 0.336-0.75 0.75 0 0.102 0.021 0.2 0.058 0.289l-0.002-0.005 0.436 1.049c0.116 0.274 0.383 0.462 0.693 0.463h0c0 0 0.001 0 0.001 0 0.414 0 0.749-0.336 0.749-0.749 0-0.104-0.021-0.203-0.059-0.293l0.002 0.005zM11.601 7.337c0.116 0.273 0.382 0.461 0.692 0.461 0.414 0 0.75-0.336 0.75-0.75 0-0.103-0.021-0.201-0.058-0.29l0.002 0.005-0.436-1.050c-0.116-0.274-0.382-0.462-0.692-0.462-0.414 0-0.75 0.336-0.75 0.75 0 0.104 0.021 0.202 0.059 0.292l-0.002-0.005zM25.24 12.99l1.047-0.434c0.274-0.116 0.463-0.382 0.463-0.693 0-0.414-0.336-0.75-0.75-0.75-0.104 0-0.202 0.021-0.292 0.059l0.005-0.002-1.047 0.434c-0.274 0.116-0.463 0.382-0.463 0.693 0 0.414 0.336 0.75 0.75 0.75 0 0 0 0 0 0h-0c0.104-0 0.202-0.021 0.292-0.059l-0.005 0.002zM6.765 19.018l-1.052 0.436c-0.272 0.117-0.46 0.382-0.46 0.692 0 0.414 0.336 0.75 0.75 0.75 0.102 0 0.2-0.020 0.288-0.057l-0.005 0.002 1.052-0.436c0.276-0.115 0.466-0.383 0.466-0.695 0-0.414-0.336-0.75-0.75-0.75-0.105 0-0.204 0.021-0.295 0.060l0.005-0.002zM24.664 20.4l1.049 0.436c0.084 0.036 0.182 0.057 0.285 0.057 0.001 0 0.002 0 0.002 0h-0c0 0 0 0 0 0 0.414 0 0.75-0.336 0.75-0.75 0-0.311-0.189-0.578-0.459-0.691l-0.005-0.002-1.049-0.436c-0.084-0.035-0.182-0.056-0.284-0.056-0.414 0-0.75 0.336-0.75 0.75 0 0.31 0.188 0.576 0.456 0.69l0.005 0.002zM7.337 11.601l-1.050-0.436c-0.085-0.036-0.184-0.057-0.287-0.057-0.414 0-0.75 0.336-0.75 0.75 0 0.31 0.189 0.577 0.458 0.691l0.005 0.002 1.050 0.436c0.084 0.036 0.182 0.056 0.285 0.056 0.414 0 0.75-0.336 0.75-0.75 0-0.31-0.188-0.575-0.456-0.69l-0.005-0.002zM19.424 7.745c0.085 0.036 0.184 0.056 0.287 0.057h0c0 0 0.001 0 0.001 0 0.31 0 0.577-0.189 0.69-0.458l0.002-0.005 0.436-1.052c0.036-0.085 0.057-0.184 0.057-0.287 0-0.414-0.336-0.75-0.75-0.75-0.311 0-0.578 0.189-0.692 0.458l-0.002 0.005-0.436 1.052c-0.036 0.085-0.057 0.183-0.057 0.287 0 0.311 0.189 0.578 0.458 0.692l0.005 0.002zM12.584 24.26c-0.085-0.036-0.184-0.057-0.287-0.057-0.311 0-0.578 0.189-0.692 0.458l-0.002 0.005-0.434 1.047c-0.036 0.085-0.057 0.184-0.057 0.287 0 0.414 0.336 0.75 0.75 0.75 0.311 0 0.578-0.189 0.691-0.458l0.002-0.005 0.434-1.047c0.036-0.085 0.057-0.183 0.057-0.287 0-0.311-0.189-0.578-0.458-0.692l-0.005-0.002z"/> </g>
</svg>